<svg width="24" height="24" viewBox="0 0 24 24" fill="none" xmlns="http://www.w3.org/2000/svg">
<g clip-path="url(#clip0_665_450)">
<path fill-rule="evenodd" clip-rule="evenodd" d="M13.0599 16.06C12.7787 16.3409 12.3974 16.4987 11.9999 16.4987C11.6024 16.4987 11.2212 16.3409 10.9399 16.06L5.2819 10.404C5.00064 10.1226 4.84268 9.74098 4.84277 9.34312C4.84282 9.14612 4.88167 8.95106 4.9571 8.76908C5.03253 8.58709 5.14307 8.42174 5.2824 8.28248C5.42173 8.14321 5.58713 8.03275 5.76915 7.95741C5.95117 7.88206 6.14625 7.8433 6.34325 7.84335C6.54025 7.8434 6.73531 7.88225 6.9173 7.95768C7.09929 8.03311 7.26463 8.14364 7.4039 8.28298L11.9999 12.878L16.5959 8.28198C16.7342 8.13865 16.8997 8.0243 17.0826 7.9456C17.2656 7.8669 17.4624 7.82543 17.6616 7.82361C17.8607 7.82178 18.0583 7.85964 18.2427 7.93498C18.427 8.01031 18.5946 8.12161 18.7355 8.26238C18.8764 8.40315 18.9878 8.57058 19.0633 8.75489C19.1389 8.9392 19.1769 9.1367 19.1753 9.33587C19.1736 9.53503 19.1323 9.73188 19.0538 9.91493C18.9753 10.098 18.8611 10.2635 18.7179 10.402L13.0599 16.062V16.06Z" fill="black"/>
</g>
<defs>
<clipPath id="clip0_665_450">
<rect width="24" height="24" fill="white" transform="matrix(0 -1 1 0 0 24)"/>
</clipPath>
</defs>
</svg>
