<svg width="24" height="24" viewBox="0 0 24 24" fill="none" xmlns="http://www.w3.org/2000/svg">
<g clip-path="url(#clip0_1114_1830)">
<path d="M5.16543e-08 7.49994C-0.000203602 9.2359 0.601794 10.9182 1.70333 12.2599C2.80487 13.6016 4.33773 14.5196 6.0405 14.8574C6.13857 13.7829 6.41432 12.7322 6.8565 11.7479C5.5425 11.3039 4.698 10.2959 4.5 8.86494H3.75V8.22594H4.449V7.57494C4.448 7.50494 4.45 7.43744 4.455 7.37244H3.75V6.73194H4.5165C4.854 4.85994 6.3195 3.74994 8.5215 3.74994C8.9955 3.74994 9.4065 3.79644 9.75 3.87744V4.97694C9.34872 4.88823 8.93841 4.84695 8.5275 4.85394C7.149 4.85394 6.2205 5.55294 5.9265 6.73194H8.802V7.37244H5.832C5.828 7.44244 5.8265 7.51594 5.8275 7.59294V8.22594H8.802V8.86644H5.895C6.072 9.76944 6.597 10.4114 7.4025 10.7099C8.19231 9.40188 9.2785 8.29777 10.5735 7.48666C11.8684 6.67555 13.3359 6.18016 14.8575 6.04044C14.4896 4.21871 13.4587 2.59834 11.9645 1.49321C10.4703 0.388081 8.61905 -0.123152 6.76944 0.0585406C4.91984 0.240233 3.20349 1.10192 1.95287 2.47668C0.702244 3.85145 0.00635551 5.64145 5.16543e-08 7.49994ZM24 15.7499C24 17.938 23.1308 20.0364 21.5836 21.5836C20.0365 23.1307 17.938 23.9999 15.75 23.9999C13.562 23.9999 11.4635 23.1307 9.91637 21.5836C8.36919 20.0364 7.5 17.938 7.5 15.7499C7.5 13.5619 8.36919 11.4635 9.91637 9.91631C11.4635 8.36914 13.562 7.49994 15.75 7.49994C17.938 7.49994 20.0365 8.36914 21.5836 9.91631C23.1308 11.4635 24 13.5619 24 15.7499ZM12.375 17.7329C12.4785 18.9854 13.494 19.9604 15.321 20.0759V20.9999H16.131V20.0699C18.0195 19.9409 19.125 18.9599 19.125 17.5349C19.125 16.2374 18.2805 15.5699 16.77 15.2249L16.131 15.0749V12.5609C16.941 12.6509 17.457 13.0814 17.58 13.6784H19.002C18.897 12.4724 17.8335 11.5289 16.131 11.4254V10.4999H15.321V11.4434C13.707 11.5979 12.609 12.5414 12.609 13.8764C12.609 15.0569 13.425 15.8084 14.784 16.1159L15.321 16.2434V18.9134C14.49 18.7934 13.941 18.3494 13.8165 17.7329H12.375ZM15.315 14.8904C14.517 14.7104 14.085 14.3444 14.085 13.7924C14.085 13.1774 14.5515 12.7139 15.321 12.5789V14.8889H15.3135L15.315 14.8904ZM16.248 16.4564C17.2155 16.6739 17.6625 17.0264 17.6625 17.6504C17.6625 18.3614 17.1075 18.8504 16.1325 18.9404V16.4294L16.248 16.4564Z" fill="#828282"/>
</g>
<defs>
<clipPath id="clip0_1114_1830">
<rect width="24" height="24" fill="white"/>
</clipPath>
</defs>
</svg>
