<svg width="24" height="24" viewBox="0 0 24 24" fill="none" xmlns="http://www.w3.org/2000/svg">
<g clip-path="url(#clip0_875_1375)">
<path d="M12 0C11.5104 0 11.0408 0.194505 10.6946 0.540726C10.3483 0.886947 10.1538 1.35652 10.1538 1.84615V11.0769C10.1538 11.5666 10.3483 12.0361 10.6946 12.3824C11.0408 12.7286 11.5104 12.9231 12 12.9231C12.4896 12.9231 12.9592 12.7286 13.3054 12.3824C13.6516 12.0361 13.8461 11.5666 13.8461 11.0769V1.84615C13.8461 1.35652 13.6516 0.886947 13.3054 0.540726C12.9592 0.194505 12.4896 0 12 0ZM5.39445 2.39446C5.12814 2.4281 4.87736 2.53842 4.67261 2.712C3.26871 3.81876 2.13434 5.22975 1.355 6.83863C0.575667 8.44751 0.171694 10.2123 0.173529 12C0.173529 18.5151 5.48307 23.8274 12 23.8274C18.5169 23.8274 23.8274 18.5151 23.8274 12C23.8274 8.24031 22.0717 4.87662 19.3274 2.71108C19.1853 2.59743 19.0222 2.51288 18.8475 2.46226C18.6728 2.41163 18.4897 2.39592 18.3089 2.41602C18.1281 2.43612 17.953 2.49164 17.7937 2.57941C17.6343 2.66717 17.4938 2.78547 17.3801 2.92754C17.2665 3.06961 17.182 3.23267 17.1313 3.40742C17.0807 3.58216 17.065 3.76517 17.0851 3.94598C17.1052 4.1268 17.1607 4.30189 17.2485 4.46125C17.3362 4.62061 17.4545 4.76113 17.5966 4.87477C18.6761 5.72223 19.5487 6.80409 20.1484 8.03852C20.7481 9.27295 21.0592 10.6276 21.0581 12C21.0611 13.1904 20.8288 14.3696 20.3746 15.4699C19.9204 16.5702 19.2533 17.5699 18.4116 18.4116C17.5699 19.2533 16.5702 19.9204 15.4699 20.3746C14.3695 20.8288 13.1903 21.0611 12 21.0582C10.8096 21.0611 9.63044 20.8288 8.53013 20.3746C7.42983 19.9204 6.4301 19.2533 5.58839 18.4116C4.74668 17.5699 4.07958 16.5702 3.6254 15.4699C3.17122 14.3696 2.93892 13.1904 2.94184 12C2.94106 10.6277 3.25228 9.27309 3.85196 8.0387C4.45165 6.80432 5.3241 5.72241 6.40338 4.87477C6.64783 4.69116 6.82464 4.4318 6.90622 4.13716C6.98781 3.84251 6.96958 3.52915 6.85438 3.24596C6.73919 2.96276 6.5335 2.72565 6.2694 2.57162C6.00531 2.41759 5.69766 2.3553 5.39445 2.39446Z" fill="#ffffff"/>
</g>
<defs>
<clipPath id="clip0_875_1375">
<rect width="24" height="24" fill="none"/>
</clipPath>
</defs>
</svg>
